<svg xmlns="http://www.w3.org/2000/svg" width="222.386" height="36.772" viewBox="0 0 222.386 36.772">
  <g id="Group_26" data-name="Group 26" transform="translate(-24.011 -138.419)">
    <path id="Path_3" data-name="Path 3" d="M406.252,22.5a18.42,18.42,0,0,1-4.635,12.525q-4.11,4.728-11.516,4.985c-.948.041-3.564.041-7.828.041-.8,0-2-.021-3.626-.082-1.607-.041-2.822-.082-3.626-.082-.474,0-.721-.185-.721-.556,0-1.792.062-4.512.206-8.117s.206-6.3.206-8.117c0-1.875-.062-4.7-.206-8.446s-.206-6.572-.206-8.426c0-.35.247-.556.721-.618,1.154-.124,3.069-.206,5.727-.206,5.047,0,8.3.082,9.785.227a18.782,18.782,0,0,1,9.106,2.946,14.943,14.943,0,0,1,4.882,6.18A18.186,18.186,0,0,1,406.252,22.5Zm-9.394,0a9.5,9.5,0,0,0-2.472-6.778A8.575,8.575,0,0,0,387.752,13c-2.513,0-3.77.33-3.77,1.009,0,.968-.021,2.41-.041,4.347-.041,1.936-.041,3.4-.041,4.347s.021,2.369.041,4.285c.041,1.916.041,3.337.041,4.306,0,.7,1.318,1.051,3.935,1.051a8.387,8.387,0,0,0,6.675-2.822A10.43,10.43,0,0,0,396.858,22.5Z" transform="translate(-273.283 133.019)" fill="#076a7f"/>
    <path id="Path_4" data-name="Path 4" d="M565.208,63.419c0,1.648-.536,2.6-1.586,2.822-.185.041-1.875.206-5.088.536-1.937.206-4.821.474-8.632.762a3.472,3.472,0,0,0,2.081,2.431,7.385,7.385,0,0,0,3.234.68,9.227,9.227,0,0,0,4.388-1.174h0a2.374,2.374,0,0,1,3.337.865c.082.144.165.309.247.474a9.546,9.546,0,0,1,1.215,2.864q0,.185-.371.556c-2,2.142-5.088,3.214-9.312,3.214a13.084,13.084,0,0,1-9.435-3.42,12.118,12.118,0,0,1-3.687-9.25,13.145,13.145,0,0,1,3.3-9.25,11.54,11.54,0,0,1,8.982-3.729,10.631,10.631,0,0,1,7.993,3.44A11.514,11.514,0,0,1,565.208,63.419Zm-8.591-1.483a3.786,3.786,0,0,0-1.071-2.678,3.447,3.447,0,0,0-2.575-1.154,3.116,3.116,0,0,0-2.555,1.3,4.511,4.511,0,0,0-.927,2.822.6.6,0,0,0,.68.659,43.681,43.681,0,0,0,5.645-.556C556.35,62.245,556.618,62.1,556.618,61.936Z" transform="translate(-406.118 96.178)" fill="#076a7f"/>
    <path id="Path_5" data-name="Path 5" d="M687.409,63.419c0,1.648-.536,2.6-1.586,2.822-.185.041-1.875.206-5.088.536-1.937.206-4.821.474-8.632.762a3.472,3.472,0,0,0,2.081,2.431,7.385,7.385,0,0,0,3.234.68,9.227,9.227,0,0,0,4.388-1.174h0a2.373,2.373,0,0,1,3.337.865c.082.144.165.309.247.474a9.55,9.55,0,0,1,1.216,2.864q0,.185-.371.556c-2,2.142-5.088,3.214-9.311,3.214a13.083,13.083,0,0,1-9.435-3.42,12.117,12.117,0,0,1-3.688-9.25,13.145,13.145,0,0,1,3.3-9.25,11.539,11.539,0,0,1,8.982-3.729,10.63,10.63,0,0,1,7.993,3.44A11.3,11.3,0,0,1,687.409,63.419Zm-8.59-1.483a3.786,3.786,0,0,0-1.071-2.678,3.447,3.447,0,0,0-2.575-1.154,3.116,3.116,0,0,0-2.555,1.3,4.511,4.511,0,0,0-.927,2.822.6.6,0,0,0,.68.659,43.681,43.681,0,0,0,5.645-.556C678.55,62.245,678.818,62.1,678.818,61.936Z" transform="translate(-503.144 96.178)" fill="#076a7f"/>
    <path id="Path_6" data-name="Path 6" d="M799.012,25.294c0,4.47.021,7.89.041,10.28,0,.371.021,1.03.082,1.936.041.845.082,1.483.082,1.936q0,.525-.618.618a27.339,27.339,0,0,1-3.976.206,19.541,19.541,0,0,1-3.749-.206.765.765,0,0,1-.618-.659V38.355c0-1.463.021-3.646.041-6.551.041-2.9.041-5.068.041-6.51,0-6.881,0-10.012.021-9.394a73.661,73.661,0,0,0-.618-9.353,1.712,1.712,0,0,1-.041-.412c0-.35.206-.536.638-.536h8.755c.412,0,.6.165.556.515l-.021.433C799.238,13.614,799.012,19.856,799.012,25.294Z" transform="translate(-603.108 132.86)" fill="#076a7f"/>
    <path id="Path_7" data-name="Path 7" d="M855.4,82c.556,0,1.339-.062,2.349-.165,1.092-.124,1.875-.185,2.328-.206,1.071-.041,2.76-.041,5.088-.041,2.678,0,4.573.041,5.686.1.227.021.8.062,1.71.144a16.007,16.007,0,0,0,1.751.124q.433,0,.433-.618c.021-.412.021-.948,0-1.648-.041-.8-.041-1.339-.041-1.627a9.522,9.522,0,0,1,.165-1.38,9.617,9.617,0,0,0,.165-1.318.878.878,0,0,0-.371-.639,113.361,113.361,0,0,1-9.188-8.735c.371,0,.948-.021,1.71-.041.762-.041,1.36-.041,1.751-.041.6,0,1.483.021,2.678.082s2.1.082,2.678.082c.289,0,.412-.1.412-.288a19.174,19.174,0,0,0-.762-3.3,16.061,16.061,0,0,1-.721-4.079c0-.288-.289-.412-.865-.412-.041,0-1.03.1-2.925.309-1.566.165-3.708.247-6.386.247-.886,0-2.2-.021-3.955-.041-1.751-.041-3.09-.041-3.955-.041q-.8,0-.8.68v5.294q0,.834,9.353,9.95a63.243,63.243,0,0,1-9.827-.494,1.04,1.04,0,0,0-.309-.041c-.227,0-.35.082-.35.268A24.3,24.3,0,0,1,854.23,78c.124.783.309,1.957.6,3.482A.576.576,0,0,0,855.4,82Z" transform="translate(-653.526 91.255)" fill="#f39508"/>
    <path id="Path_8" data-name="Path 8" d="M989.009,63.419c0,1.648-.536,2.6-1.586,2.822-.186.041-1.875.206-5.089.536-1.937.206-4.821.474-8.632.762a3.473,3.473,0,0,0,2.081,2.431,7.385,7.385,0,0,0,3.234.68,9.227,9.227,0,0,0,4.388-1.174h0a2.373,2.373,0,0,1,3.337.865c.082.144.165.309.247.474a9.55,9.55,0,0,1,1.216,2.864q0,.185-.371.556c-2,2.142-5.088,3.214-9.312,3.214a13.083,13.083,0,0,1-9.435-3.42,12.117,12.117,0,0,1-3.687-9.25,13.145,13.145,0,0,1,3.3-9.25,11.539,11.539,0,0,1,8.982-3.729,10.631,10.631,0,0,1,7.993,3.44A11.514,11.514,0,0,1,989.009,63.419Zm-8.59-1.483a3.785,3.785,0,0,0-1.071-2.678,3.447,3.447,0,0,0-2.575-1.154,3.116,3.116,0,0,0-2.555,1.3,4.512,4.512,0,0,0-.927,2.822.6.6,0,0,0,.68.659,43.68,43.68,0,0,0,5.645-.556C980.15,62.245,980.418,62.1,980.418,61.936Z" transform="translate(-742.612 96.178)" fill="#076a7f"/>
    <g id="Group_4" data-name="Group 4" transform="translate(24.011 138.543)">
      <g id="Group_3" data-name="Group 3" transform="translate(0 0)">
        <g id="Group_1" data-name="Group 1" transform="translate(4.635)">
          <path id="Path_1" data-name="Path 1" d="M105.2,31.318A18.34,18.34,0,0,0,134.783,37.6l.412-.371,12.917-13.308-5.439-5.748L129.282,31.936l-7.973-8.282,11.784-12.216c.309-.371.618-.742.968-1.112A18.554,18.554,0,0,0,122.154,6a18.313,18.313,0,0,0-15.945,9.291h.371a8.076,8.076,0,0,1,0,16.151A7.815,7.815,0,0,1,105.2,31.318Z" transform="translate(-105.2 -6)" fill="#076a7f"/>
        </g>
        <g id="Group_2" data-name="Group 2" transform="translate(0 11.351)">
          <path id="Path_2" data-name="Path 2" d="M283.615,61.1a6.015,6.015,0,1,1,0,12.031,5.82,5.82,0,0,1-3.337-1.03,6,6,0,0,1,.639-10.362A5.922,5.922,0,0,1,283.615,61.1Z" transform="translate(-277.6 -61.1)" fill="#076a7f"/>
        </g>
      </g>
    </g>
    <path id="Path_9" data-name="Path 9" d="M36.213,16.98l-.165-.185,1.669-1.71L46.1,23.964,32.361,38.117A18.446,18.446,0,0,0,61,31.154a8.388,8.388,0,0,1-2.142.288,8.086,8.086,0,0,1-.021-16.172,6.547,6.547,0,0,1,1.277.1,18.4,18.4,0,0,0-28.079-4.882L19.3,23.7l5.171,5.377Z" transform="translate(28.257 132.543)" fill="#f39508"/>
    <path id="Path_10" data-name="Path 10" d="M6.515,73.131a6.015,6.015,0,1,1,6.015-6.015A6.022,6.022,0,0,1,6.515,73.131Z" transform="translate(80.595 88.794)" fill="#f39508"/>
  </g>
</svg>
