<svg id="Component_1_1" data-name="Component 1 – 1" xmlns="http://www.w3.org/2000/svg" xmlns:xlink="http://www.w3.org/1999/xlink" width="258" height="212" viewBox="0 0 258 212">
  <defs>
    <linearGradient id="linear-gradient" x1="0.5" x2="0.5" y2="1" gradientUnits="objectBoundingBox">
      <stop offset="0" stop-color="#fff"/>
      <stop offset="1" stop-color="#f4f4f4"/>
    </linearGradient>
  </defs>
  <circle id="Ellipse_3" data-name="Ellipse 3" cx="101" cy="101" r="101" transform="translate(226 202) rotate(180)" fill="url(#linear-gradient)"/>
  <circle id="Ellipse_4" data-name="Ellipse 4" cx="69" cy="69" r="69" transform="translate(194 170) rotate(180)" fill="#f39508"/>
  <g id="Group_9" data-name="Group 9" transform="translate(-1744 141)">
    <circle id="Ellipse_5" data-name="Ellipse 5" cx="17.5" cy="17.5" r="17.5" transform="translate(1850 -82)" fill="#fff"/>
    <path id="Subtraction_1" data-name="Subtraction 1" d="M103,37H43V19.265A33.779,33.779,0,0,1,55.522,8.2a38.445,38.445,0,0,1,34.955,0A33.78,33.78,0,0,1,103,19.265V37Z" transform="translate(1795 -42)" fill="#fff"/>
    <circle id="Ellipse_7" data-name="Ellipse 7" cx="5" cy="5" r="5" transform="translate(1960 -99)" fill="#e1e4e5"/>
    <circle id="Ellipse_8" data-name="Ellipse 8" cx="4" cy="4" r="4" transform="translate(1770 -112)" fill="#e1e4e5"/>
    <circle id="Ellipse_9" data-name="Ellipse 9" cx="5.5" cy="5.5" r="5.5" transform="translate(1744 -51)" fill="#076a7f"/>
    <circle id="Ellipse_10" data-name="Ellipse 10" cx="5.5" cy="5.5" r="5.5" transform="translate(1759 12)" fill="#e1e4e5"/>
    <circle id="Ellipse_11" data-name="Ellipse 11" cx="7.5" cy="7.5" r="7.5" transform="translate(1791 43)" fill="#076a7f"/>
    <g id="Ellipse_16" data-name="Ellipse 16" transform="translate(1837 8)" fill="#076a7f" stroke="#076a7f" stroke-width="1">
      <ellipse cx="31" cy="31.5" rx="31" ry="31.5" stroke="none"/>
      <ellipse cx="31" cy="31.5" rx="30.5" ry="31" fill="none"/>
    </g>
    <circle id="Ellipse_12" data-name="Ellipse 12" cx="6.5" cy="6.5" r="6.5" transform="translate(1965 -13)" fill="#076a7f"/>
    <circle id="Ellipse_14" data-name="Ellipse 14" cx="3.5" cy="3.5" r="3.5" transform="translate(1995 14)" fill="#e1e4e5"/>
    <circle id="Ellipse_15" data-name="Ellipse 15" cx="3.5" cy="3.5" r="3.5" transform="translate(1911 49)" fill="#e1e4e5"/>
    <circle id="Ellipse_13" data-name="Ellipse 13" cx="3.5" cy="3.5" r="3.5" transform="translate(1957 18)" fill="#e1e4e5"/>
    <path id="Path_11" data-name="Path 11" d="M1933.749,192.5h13.11" transform="translate(20 -171)" fill="none" stroke="#e1e4e5" stroke-width="1"/>
    <path id="Path_12" data-name="Path 12" d="M1933.749,192.5h13.11" transform="translate(1767.804 1961.804) rotate(-90)" fill="none" stroke="#e1e4e5" stroke-width="1"/>
    <path id="Union_2" data-name="Union 2" d="M11.5,26.5v-8h-8a3.5,3.5,0,1,1,0-7h8v-8a3.5,3.5,0,1,1,7,0v8h8a3.5,3.5,0,0,1,0,7h-8v8a3.5,3.5,0,0,1-7,0Z" transform="translate(1853 24.5)" fill="#fff"/>
  </g>
</svg>
